<svg width="15" height="14" viewBox="0 0 15 14" fill="none" xmlns="http://www.w3.org/2000/svg">
<path d="M0.68 14V12.08H2.18V2.28H0.72V0.359999H5.98V14H0.68ZM5.98 14V11.96H8.66C9.32667 11.96 9.85333 11.7933 10.24 11.46C10.64 11.1267 10.84 10.64 10.84 10C10.84 9.37333 10.64 8.89333 10.24 8.56C9.85333 8.21333 9.32667 8.04 8.66 8.04H5.98V6.8H9.94C11.4067 6.8 12.56 7.07333 13.4 7.62C14.2533 8.16667 14.68 9.06 14.68 10.3C14.68 11.5667 14.2533 12.5 13.4 13.1C12.56 13.7 11.4067 14 9.94 14H5.98ZM5.98 7.14V6.04H8.08C8.72 6.04 9.22 5.88667 9.58 5.58C9.94 5.26 10.12 4.8 10.12 4.2C10.12 3.58667 9.94 3.12667 9.58 2.82C9.22 2.51333 8.72 2.36 8.08 2.36H5.98V0.359999H9.24C10.6667 0.359999 11.8 0.646666 12.64 1.22C13.4933 1.78 13.92 2.65333 13.92 3.84C13.92 4.98667 13.5 5.82667 12.66 6.36C11.82 6.88 10.6867 7.14 9.26 7.14H5.98Z" fill="black"/>
</svg>
